<?xml version="1.0" encoding="UTF-8"?> <svg xmlns="http://www.w3.org/2000/svg" width="31" height="34" viewBox="0 0 31 34" fill="none"><path d="M16.0938 30.5269C15.7895 30.2234 15.1358 30.2142 14.8592 30.5625C14.3786 31.1675 14.9934 32.6871 14.4432 33.456C13.9258 34.1781 12.7916 34.1303 12.3428 33.3654C11.894 32.6005 12.4914 31.0229 11.9104 30.4892C11.5241 30.1337 10.8039 30.314 10.6707 30.8243C10.4278 31.7582 11.0815 33.2921 9.92168 33.8431C9.51902 34.0345 8.31615 34.0345 7.90631 33.8594C7.46471 33.6699 7.21471 33.289 7.16348 32.8174L7.1307 28.5765L0.633771 23.6918C0.325369 23.4219 0.0907377 23.1826 0.0436066 22.7528C0.136844 17.1807 -0.72791 12.1657 2.3766 7.21585C8.15016 -1.98817 21.4678 -2.47093 27.9524 6.24931C31.7577 11.3662 30.8981 16.6847 30.9524 22.7039C30.9135 23.1266 30.7608 23.3181 30.4657 23.5931L23.8643 28.5775L23.8377 32.7737C23.808 33.3664 23.3428 33.9021 22.7383 33.9704C22.2157 34.0294 21.2731 34.0335 20.8448 33.7158C20.0877 33.1525 20.4381 31.8631 20.3602 31.0433C20.2711 30.0971 19.0262 30.0889 18.8448 30.864C18.642 31.7358 19.1973 33.1148 18.308 33.7382C17.7414 34.1354 16.9534 34.0193 16.5498 33.4571C15.9985 32.6871 16.6307 31.0646 16.0928 30.5279L16.0938 30.5269ZM8.47598 14.2974C7.0057 14.4389 5.60303 15.5582 5.07025 16.9149C3.68193 20.451 7.25057 23.8955 10.7557 22.3637C15.1174 20.4571 13.5036 13.8146 8.47496 14.2974H8.47598ZM21.4217 14.2974C19.1932 14.5112 17.5282 16.6439 17.6973 18.8347C17.9586 22.2079 22.0487 23.9556 24.6799 21.7588C27.9268 19.0486 25.7291 13.8839 21.4217 14.2974ZM17.2188 25.6596C17.3889 25.4895 17.5036 25.1473 17.4166 24.912C16.9555 24.2072 16.602 23.1571 16.103 22.5043C15.7977 22.1061 15.1942 22.1061 14.8899 22.5043C14.6727 22.7885 13.686 24.5657 13.5918 24.8763C13.4104 25.4752 13.8366 25.8276 14.3971 25.8785C14.8715 25.9213 16.5938 25.9376 16.9801 25.8032C17.0375 25.7828 17.1758 25.7003 17.2188 25.6585V25.6596Z" fill="#B11225"></path></svg> 